<?xml version="1.0" encoding="UTF-8"?>
<!-- Generator: Adobe Illustrator 25.2.3, SVG Export Plug-In . SVG Version: 6.00 Build 0)  -->
<svg xmlns="http://www.w3.org/2000/svg" xmlns:xlink="http://www.w3.org/1999/xlink" version="1.1" id="Capa_1" x="0px" y="0px" viewBox="0 0 512 512" style="enable-background:new 0 0 512 512;" xml:space="preserve" width="512" height="512">
<g>
	<path style="opacity:0.2;fill-rule:evenodd;clip-rule:evenodd;fill:#7678C7;" d="M466.112,463.737   c-54.83-32.7-427.86-38.77-424.923-4.577c0.803,9.679,57.478,5.276,64.384,5.341c-6.783,1.35-47.512,10.508-31.14,24.128   c13.397,11.148,38.201,13.207,54.93,15.798c38.839,6.016,78.394,7.506,117.641,7.571c33.116,0.053,66.315-0.973,99.318-3.738   c8.256-0.691,16.664-1.259,24.802-2.875c21.37-4.244,21.979-7.528,10.568-17.878C390.177,487.323,493.898,479.642,466.112,463.737   C461.923,461.35,469.219,465.591,466.112,463.737z"/>
	<g>
		<g>
			<g>
				<g>
					<path style="fill-rule:evenodd;clip-rule:evenodd;fill:#FFB4A3;" d="M288.675,106.216c3.409,4.391,27.746,29.708,37.894,40.118       c8.872,9.105,36.642,30.803,40.468,32.994l0,0c2.037,0.914,3.978,1.803,5.456,2.421c2.65,1.114,5.419,2.276,7.983,3.313       c2.43,0.977,10.418,4.152,9.274,7.047c-0.942,2.394-8.238-1.498-10.467-1.726c2.611,2.444,6.072,6.982,8.229,12.273       c0.567,1.394,1.927,4.258,0.616,4.967c-1.792,0.965-2.97-1.277-3.743-2.198c-1.07-1.295-2.017-2.144-2.704-3.388       c0.388,2.033,2.572,6.189,2.638,8.651c0.017,0.798-0.309,1.786-1.033,2.009c-1.691,0.515-2.537-1.815-3.428-3.241       c-1.2-1.93-2.147-3.116-2.945-4.456c-0.017-0.066-0.042-0.135-0.056-0.19c0.01,0.05,0.025,0.107,0.039,0.157       c0.005,0.01,0.012,0.021,0.017,0.033c0.486,1.642,2.613,6.046,2.756,8.426c0.059,0.952-0.194,2.103-1.144,2.361       c-1.99,0.535-3.411-3.312-4.123-4.576c-1.225-2.207-2.236-3.675-3.215-5.586c0.152,1.74,2.41,6.259,2.773,9.28       c0.157,1.258,0.061,2.74-1.173,3.022c-1.561,0.351-3.139-2.672-3.715-3.676c-2.744-4.825-5.848-10.189-8.921-13.611       c-2.344-2.605-4.771-4.778-7.505-6.729c-12.408-7.389-36.142-23.989-46.525-33.575c-10.727-9.904-34.375-31.637-41.364-40.592       C269.594,118.465,284.739,108.539,288.675,106.216z"/>
					<path style="fill:#DD9083;" d="M271.057,116.832c7.861,10.356,27.864,31.153,37.281,40.989       c9.09,9.486,29.317,25.728,41.703,34.506c-12.884-7.973-34.223-23.037-43.919-31.989       c-10.727-9.904-34.375-31.637-41.364-40.592C266.163,119.374,268.443,118.265,271.057,116.832z"/>
					<path style="fill:#DD9083;" d="M320.463,152.129c-0.459-0.72,2.12-4.247,4.702-7.241c0.486,0.506,0.967,0.993,1.404,1.445       c0.547,0.561,1.163,1.169,1.843,1.815C325.325,150.702,320.915,152.851,320.463,152.129z"/>
				</g>
				<path style="fill:#7678C7;" d="M240.15,75.758c9.37-3.062,18.249,3.427,24.046,7.453c15.77,10.953,27.39,23.81,40.463,37.687      l-24.411,25.626c-8.7-6.651-17.159-13.562-24.899-20.919c-4.332-4.127-9.036-8.83-13.292-14.294      c-4-5.158-8.035-11.67-9.289-19.11C231.523,84.842,233.857,77.813,240.15,75.758z"/>
			</g>
			<g>
				<g>
					<polygon style="fill-rule:evenodd;clip-rule:evenodd;fill:#FFB4A3;" points="247.593,408.89 218.286,419.604 205.326,382.656        234.628,371.948      "/>
					<g>
						<path style="fill-rule:evenodd;clip-rule:evenodd;fill:#EFF973;" d="M251.205,404.51c7.875-0.951,15.319-1.343,22.237,0.863        c2.078,0.656,5.065,1.536,5.691,3.81c0.847,3.025-4.049,5.87-8.241,8.083c-8.82,4.627-17.333,8.269-27.049,11.92        c-7.858,2.96-15.188,5.015-19.667,1.579c-3.288-2.525-5.492-6.549-7.789-10.565c-2.292-4.006-4.089-8.16-5.566-13.412        c6.128-3.604,14.646-7.631,23.226-10.824c-2.336-4.88-0.172-7.905,4.987-10.466c1.764-0.88,4.903-1.946,6.081-1.366        C247.505,385.327,250.867,401.155,251.205,404.51z"/>
						<g>
							<path style="fill:#484FA3;" d="M252.496,387.741c0.334,0.02,0.668,0.086,1.006,0.207c0.79,0.274,1.33,0.895,1.627,1.864         c1.082,3.567-1.497,11.607-3.21,14.029c-0.169,0.242-0.447,0.392-0.734,0.4c-0.285,0.01-0.55-0.134-0.697-0.356         c-1.07-1.692-2.763-11.474-0.516-14.813C250.585,388.164,251.483,387.698,252.496,387.741L252.496,387.741 M251.412,401.417         c1.428-3.148,2.795-8.668,2.076-11.054c-0.159-0.492-0.37-0.796-0.65-0.902c-0.209-0.055-0.385-0.094-0.547-0.114l0,0         c-0.28-0.006-0.579,0.044-0.903,0.526C249.934,392.032,250.629,398.339,251.412,401.417"/>
							<path style="fill:#484FA3;" d="M260.33,389.902c0.766,0.042,1.438,0.412,1.983,1.134c0.481,0.623,0.559,1.455,0.245,2.46         c-1.116,3.71-7.701,9.538-10.454,10.818c-0.255,0.132-0.574,0.126-0.815-0.022c-0.233-0.137-0.38-0.387-0.358-0.666         c0.076-1.887,3.406-9.691,6.7-12.555C258.573,390.249,259.471,389.859,260.33,389.902L260.33,389.902 M253.073,401.889         c2.93-2.073,7.109-6.243,7.875-8.727c0.157-0.522,0.145-0.896-0.02-1.131c-0.277-0.331-0.545-0.504-0.795-0.523         c-0.371-0.026-0.849,0.218-1.404,0.704C256.433,394.21,254.042,399.165,253.073,401.889"/>
							<polygon style="fill:#484FA3;" points="264.161,399.992 251.64,402.827 251.92,404.389 264.443,401.552        "/>
						</g>
						<g>
							<path style="fill:#FFFFFF;" d="M267.994,407.774c-6.452,6.151-16.264,8.415-22.963,5.944         c-5.914-2.184-9.512-7.591-12.852-14.62c-0.282-0.598-0.628-1.302-0.969-2.042c0.945-0.373,1.89-0.739,2.837-1.092         c-0.343-0.72-0.579-1.398-0.734-2.043c0.132,0.444,0.268,0.881,0.449,1.292c3.951,9.108,10.945,20.35,24.595,15.118         c3.534-1.351,6.14-3.267,7.949-5.131c0.321-0.332,0.601-0.724,0.869-1.134c1.215,0.142,2.415,0.321,3.595,0.588         C269.984,405.849,268.831,406.979,267.994,407.774z"/>
							<path style="fill:#FFFFFF;" d="M218.087,419.731c8.801-4.763,15.527-1.511,20.18,4.084c1.077,1.299,3.74,4.358,3.564,6.108         c-0.803,0.285-1.595,0.558-2.376,0.812c-1.053-0.794-1.936-2.696-2.928-4.056c-5.019-6.857-9.642-8.458-17.22-4.391         c-0.432,0.228-0.808,0.572-1.188,0.908c-0.513-0.855-1.006-1.73-1.509-2.606C217.1,420.262,217.626,419.978,218.087,419.731z         "/>
						</g>
						<path style="fill:#484FA3;" d="M225.585,431.607c4.525,2.169,11.171,0.236,18.258-2.422        c9.716-3.651,18.229-7.293,27.049-11.92c3.755-1.972,8.049-4.468,8.31-7.136L225.585,431.607z"/>
					</g>
				</g>
				<g>
					<path style="fill-rule:evenodd;clip-rule:evenodd;fill:#C12B2B;" d="M194.533,240.661       c11.839,56.089,26.652,81.824,43.639,132.964c-1.391,1.828-29.53,13.874-35.761,16.707       c-30.46-50.248-42.66-82.371-60.973-144.281C160.982,246.468,178.645,243.216,194.533,240.661z"/>
					<g>
						<path style="fill-rule:evenodd;clip-rule:evenodd;fill:#FFFFFF;" d="M166.723,291.745c1.328,1.924,0.945,7.611-1.512,7.777        c-2.535,0.177-1.868-5.611-0.817-7.641C164.911,291.435,166.013,291.364,166.723,291.745z"/>
						<path style="fill-rule:evenodd;clip-rule:evenodd;fill:#FFFFFF;" d="M171.844,303.615c3.185-1.412,2.896,3.985,2.528,7.415        c-0.248,2.327-0.78,5.047-2.474,4.884c-2.383-0.205-1.949-10.149-0.697-11.889        C171.314,303.862,171.655,303.702,171.844,303.615z"/>
					</g>
				</g>
			</g>
		</g>
		<g>
			<g>
				<g>
					<path style="fill-rule:evenodd;clip-rule:evenodd;fill:#7678C7;" d="M318.784,206.031c1.598-3.089,7.11-0.146,9.706,1.125       c18.956,9.283,35.403,19.366,59.277,25.481c3.485,0.891,10.052,2.329,11.144,0.224c1.215-2.351-1.671-5.831-3.09-7.806       c-9.5-13.208-24.897-20.655-39.59-30.113c-2.562-1.644-7.564-4.57-3.703-7.073c5.831,0.298,13.932,5.132,18.786,7.755       c10.815,5.854,20.774,12.398,28.365,21.368c3.578,4.234,8.099,10.079,7.159,16.251c-0.704,4.662-4.184,6.777-7.588,8.167       c0.834,6.841,0.555,13.824,0.515,20.8c-0.115,20.962-0.069,41.601-0.734,63.738c-0.638,21.585-0.878,42.634-2.488,65.126       c-0.523,7.392-1.207,16.84-7.485,16.415c-5.083-0.335-5.691-5.755-6.096-11.604c-0.378-5.478-0.52-12.175-0.54-16.014       c-0.186-33.086,5.144-122.551,5.6-126.462c0.466-4.058,0.989-8.041,1.075-11.579c-23.469-4.934-39.18-13.232-57.652-23.43       c-2.042-1.126-5.482-3.015-8.202-4.936C320.966,211.858,317.491,208.531,318.784,206.031z"/>
					<path style="fill-rule:evenodd;clip-rule:evenodd;fill:#484FA3;" d="M399.25,241.411c3.404-1.39,6.884-3.506,7.588-8.167       c0.94-6.172-3.581-12.017-7.159-16.251c-7.591-8.97-17.549-15.514-28.365-21.368c-4.854-2.624-12.955-7.457-18.786-7.755       c-3.861,2.503,1.141,5.429,3.703,7.073c14.693,9.458,30.09,16.905,39.59,30.113c1.419,1.975,4.305,5.456,3.09,7.806       c-1.092,2.104-7.659,0.667-11.144-0.224c-23.874-6.116-40.321-16.198-59.277-25.481c-2.596-1.271-8.108-4.214-9.706-1.125       c-1.293,2.499,2.182,5.827,4.459,7.433c2.719,1.921,6.16,3.81,8.202,4.936c18.472,10.198,34.184,18.495,57.652,23.43       C391.674,242.429,398.315,242.091,399.25,241.411z"/>
				</g>
				<g>
					<path style="fill:#484FA3;" d="M133.521,293.133c0.807-1.34,1.794-2.561,3.225-3.238c2.945-1.396,6.361-0.465,10.145-1.076       c-0.344-8.738-0.076-20.586-0.476-29.366c-3.966-0.12-7.495,0.863-11.524,0.715c-4.01-0.15-11.723-1.926-12.011-3.265       c-0.591-2.75-0.219-6.097,0.056-9.001c0.594-6.182,2.226-9.921,8.761-9.982c8.724-0.086,16.548,1.481,28.146,3.056       c5.212,0.708,9.006,1.088,13.866,1.792c4.167,0.606,10.724,1.348,12.639,3.389c2.469,2.631,3.259,9.284,2.086,12.41       c-0.051,0.136-0.113,0.257-0.172,0.378c0,0-5.996,1.013-11.024,1.246c-6.408,0.294-15.056-0.268-20.236-0.196       c0.388,8.704,0.037,21.326,0.486,29.369c3.62,0.902,8.202,0.14,11.014,1.924c1.563,0.987,2.125,3.802,3.021,5.599       c-7.382-1.022-14.788-2.07-22.278-2.792C144.02,293.595,138.824,293.33,133.521,293.133z"/>
					<path style="fill:#7678C7;" d="M124.551,260.373c-0.869-0.939-1.382-2.142-1.671-3.486c1.058-0.115,2.172-0.104,3.068-0.178       c10.675-0.88,22.367-0.941,33.43-0.498c8.15,0.324,16.148,0.637,23.638,1.487c1.588,0.182,3.951,0.06,5.247,1.247       c-1.627,3.541-5.998,3.471-11.024,3.702c-6.358,0.293-14.919,0.78-20.114,0.86c-1.431-0.059-2.847-0.133-4.248-0.234       c-2.138-0.156-4.299-0.241-6.462-0.304c0,0,0,0,0-0.001c-3.966-0.12-7.495-0.195-11.524-0.344       c-0.665-0.026-1.333-0.04-1.998-0.058c-1.696-0.102-3.338-0.258-4.953-0.455C126.59,261.805,125.407,261.292,124.551,260.373z"/>
				</g>
			</g>
			<g>
				<g>
					<g>
						<path style="fill-rule:evenodd;clip-rule:evenodd;fill:#484FA3;" d="M124.797,459.231c-7.888-1.015-16.938,1.154-17.908,8.922        c-0.643,5.096,1.953,9.306,5.232,11.046c3.478,1.846,10.111,1.382,16.533,1.305c75.248-0.901,150.661,0,226.385-0.901        c5.35-0.064,11.93-0.007,16.811,0.099c6.585,0.142,12.855,0.437,16.801-1.103c4.518-1.755,7.559-6.142,6.773-11.489        c-1.262-8.577-10.813-9.745-20.225-8.766c-1.818-3.204-2.469-6.981-3.733-10.465c-1.232-3.424-2.805-6.639-4.314-9.858        c-3.031-6.449-6.636-14.246-13.125-17.558c-9.07-4.634-22.833-4.5-36.38-4.069c-13.684,0.433-28.161,0.631-40.527,0.483        c-13.522-0.163-27.422-0.334-40.238-0.721c-14.084-0.424-28.836,0.624-41.151-0.708c-4.464-0.483-9.704,0.066-14.408,0.17        c-4.646,0.104-9.331,0.374-13.5,0.762c-8.903,0.828-17.424,1.483-23.667,4.785c-6.204,3.285-9.937,9.803-12.717,16.066        C128.451,443.956,127.204,451.778,124.797,459.231z"/>
						<g>
							<path style="fill-rule:evenodd;clip-rule:evenodd;fill:#FFFFFF;" d="M243.117,460.821c1.146,2.14,4.108,1.619,6.027,1.729         c26.784,1.556,56.719,0.226,84.967-0.113c7.949-0.097,15.539-0.142,23.118-0.575c2.042-0.119,4.479-0.092,6.29-1.276         c-0.469-1.886-3.777-1.817-5.73-2.035c-20.281-2.261-46.28-2.049-69.365-0.672c-12.344,0.735-24.009,0.092-35.725,0.728         c-1.711,0.092-3.902,0.109-5.704,0.366C245.698,459.161,243.733,459.417,243.117,460.821z"/>
							<path style="fill-rule:evenodd;clip-rule:evenodd;fill:#FFFFFF;" d="M234.719,461.522c-1.252-1.988-4.439-2.053-7.235-2.314         c-6.096-0.576-13.591-0.784-21.022-0.351c-2.935,0.173-9.674,0.285-9.274,2.814c0.351,2.225,10.737,1.86,13.23,1.945         c6.879,0.231,15.643,0.476,20.72-0.25C232.525,463.167,234.437,462.832,234.719,461.522z"/>
						</g>
					</g>
					<g>
						<g>
							<path style="fill-rule:evenodd;clip-rule:evenodd;fill:#7678C7;" d="M118.904,292.659         c-19.532-0.698-37.042,4.868-49.067,14.997c-10.953,9.228-20.193,24.022-22.328,41.102         c-2.596,20.786,4.27,38.122,13.206,49.686c9.573,12.395,21.945,20.581,38.431,25.064c16.69,4.536,36.203,5.739,55.932,7.137         c20.021,1.419,39.764,1.226,60.977,1.976c20.674,0.73,41.44,0.185,62.141-1.042c20.622-1.221,41.315-1.006,61.22-2.832         c30.009-2.756,56.162-7.138,68.735-27.244c4.13-6.598,7.092-15.181,6.609-25c-0.965-19.484-12.298-29.957-26.271-37.52         c-13.414-7.258-32.299-11.433-48.223-15.036c-34.787-7.875-70.33-12.883-107.714-18.533         c-18.629-2.814-36.846-5.28-55.34-7.746c-9.264-1.236-18.55-2.664-27.967-3.571         C139.335,293.146,129.55,293.037,118.904,292.659z"/>
							<path style="fill:#484FA3;" d="M393.493,347.685c-13.407-7.259-32.296-11.434-48.221-15.036         c-34.787-7.876-70.325-12.884-107.714-18.534c-18.629-2.812-36.844-5.279-55.338-7.745         c-9.269-1.236-18.556-2.665-27.967-3.57c-9.915-0.952-19.702-1.059-30.343-1.438c-19.53-0.696-37.04,4.869-49.068,14.998         c-10.948,9.225-20.19,24.021-22.325,41.1c-1.831,14.641,1.043,27.559,6.02,37.966c-7.826-11.471-13.412-27.611-11.029-46.67         c2.135-17.079,11.375-31.874,22.328-41.102c12.025-10.129,29.535-15.695,49.067-14.997c10.646,0.378,20.43,0.487,30.34,1.437         c9.417,0.907,18.703,2.335,27.967,3.571c18.494,2.467,36.711,4.933,55.34,7.746c37.384,5.65,72.926,10.657,107.714,18.533         c15.925,3.604,34.809,7.778,48.223,15.036c10.086,5.46,18.774,12.454,23.201,23.242         C406.973,356.103,400.578,351.517,393.493,347.685z"/>
						</g>
						<g>
							<g>
								<path style="fill-rule:evenodd;clip-rule:evenodd;fill:#FFFFFF;" d="M72.956,317.226c-1.637-1.815-4.049,1.378-5.667,3.371          c-2.952,3.646-7.964,11.893-8.506,16.316c-0.398,3.134,0.358,5.68,1.868,5.983c2.699,0.54,3.566-2.917,4.439-5.458          c1.838-5.335,3.396-8.845,5.841-13.58C72.016,321.755,74.404,318.659,72.956,317.226z"/>
								<path style="fill-rule:evenodd;clip-rule:evenodd;fill:#FFFFFF;" d="M58.324,349.229c-3.016-0.762-3.045,5.552-2.886,9.643          c0.363,9.345,3.023,17.031,7.198,24.535c8.766,15.754,23.908,28.847,45.431,32.787c4.383,0.801,11.657,1.955,12.001-1.345          c0.285-2.821-4.292-3.897-6.665-4.725c-9.431-3.285-16.524-3.966-25.027-8.708c-12.727-7.094-21.051-19.464-25.346-35.428          c-0.393-1.448-1.262-4.63-1.9-8.384C60.565,354.31,60.874,349.874,58.324,349.229z"/>
							</g>
							<g>
								<path style="fill-rule:evenodd;clip-rule:evenodd;fill:#FFFFFF;" d="M334.385,334.223c0.319,3.124,11.004,3.6,11.424,1.366          C346.447,332.195,333.993,330.429,334.385,334.223z"/>
								<path style="fill-rule:evenodd;clip-rule:evenodd;fill:#FFFFFF;" d="M405.128,374.815c3.139-1.232,0.069-5.594-0.991-7.795          c-3.392-7.052-8.859-13.249-14.928-17.838c-8.504-6.436-19.483-11.82-30.483-13.149c-2.444-0.296-6.13-0.395-6.587,1.282          c-0.893,3.269,5.075,3.864,6.957,4.421c8.891,2.624,16.565,5.739,23.245,10.531c7.139,5.12,11.571,10.635,16.722,17.516          C400.379,371.538,402.232,375.952,405.128,374.815z"/>
								<path style="fill-rule:evenodd;clip-rule:evenodd;fill:#FFFFFF;" d="M401.714,390.469          c-2.005,5.813-5.436,11.103-9.728,15.129c-2.039,1.91-6.673,4.771-6.233,6.081c0.859,2.553,5.806-0.486,7.782-2.196          c5.716-4.953,12.771-14.424,13.535-23.281c0.115-1.394,0.11-3.129-0.349-3.9c-0.174-0.431-0.481-0.729-0.91-0.888          C403.572,380.799,402.74,387.497,401.714,390.469z"/>
							</g>
						</g>
					</g>
				</g>
				<g>
					<g>
						<path style="fill-rule:evenodd;clip-rule:evenodd;fill:#FFFFFF;" d="M242.368,331.314        c-18.15-0.935-31.189,9.916-37.271,22.064c-2.739,5.469-3.743,10.081-4.027,14.761c-0.817,13.446,4.116,22.675,11.169,29.892        c7.102,7.267,17.017,12.334,28.065,12.276c11.269-0.061,21.746-4.838,28.679-12.352c6.508-7.052,11.478-17.166,10.452-30.151        c-0.611-7.729-4.191-16.718-7.463-21.232C266.431,338.917,257.017,332.07,242.368,331.314z"/>
						<path style="fill-rule:evenodd;clip-rule:evenodd;fill:#7678C7;" d="M241.419,349.138c-9.954-0.513-17.1,5.438-20.438,12.099        c-1.502,2.999-2.052,5.529-2.206,8.096c-0.444,7.372,2.26,12.434,6.128,16.392c3.89,3.986,9.331,6.765,15.387,6.731        c6.182-0.034,11.927-2.652,15.731-6.775c3.569-3.864,6.293-9.412,5.728-16.533c-0.334-4.236-2.297-9.167-4.091-11.642        C254.617,353.309,249.456,349.554,241.419,349.138z"/>
						<path style="fill-rule:evenodd;clip-rule:evenodd;fill:#484FA3;" d="M210.892,386.037c3.159-1.905-0.26-6.777-1.021-10.196        c-0.793-3.561-1.367-7.749-1.345-11.996c-0.174-0.431-0.479-0.725-0.91-0.89c-3.48-0.409-3.203,8.159-2.859,12.046        C205.25,380.608,207.564,388.047,210.892,386.037z"/>
						<path style="fill-rule:evenodd;clip-rule:evenodd;fill:#484FA3;" d="M217.955,399.163c0.994,0.881,3.129,2.762,4.221,1.452        c1.824-2.18-1.949-3.974-3.365-5.363c-1.566-1.528-3.073-6.014-4.869-5.345C211.174,390.933,215.638,397.107,217.955,399.163z        "/>
					</g>
					<path style="fill-rule:evenodd;clip-rule:evenodd;fill:#484FA3;" d="M218.995,374.868       c1.772,10.847,10.123,18.277,22.104,17.742c1.985-0.089,4.027-0.539,4.889-0.801c10.879-2.754,18.298-12.538,16.867-24.119       c-1.308-10.618-10.644-20.143-23.65-19.401c-0.54-6.662-1.217-13.193-1.973-19.655c4.928-0.689,9.951,0.953,13.296-0.709       c2.376-1.189,4.329-5.998,3.942-8.645c-1.522-1.401-3.551-0.591-5.5-0.491c-5.676,0.292-12.666,0.459-18.779,0.78       c-3.792,0.201-7.75-0.777-10.398,1.232c-0.223,3.048,0.061,6.091,2.113,7.465c2.992,1.992,8.116,0.12,12.438,0.401       c0.346,6.856,0.849,13.568,1.686,19.935C224.772,351.752,216.823,361.579,218.995,374.868z M236.665,353.31       c0.854,2.146-0.587,13.449,2.474,13.558c3.264,0.123,0.758-10.754,0.712-13.041l-0.007-0.834       c9.07,0.764,15.863,5.875,16.936,14.222c1.33,10.305-5.514,19.581-16.244,19.598c-3.76,0.001-7.772-1.545-10.457-3.764       C219.589,374.408,221.923,354.796,236.665,353.31z"/>
				</g>
			</g>
		</g>
		<g>
			<g>
				<g>
					
						<rect x="220.023" y="268.292" transform="matrix(0.4376 -0.8992 0.8992 0.4376 -120.6877 374.752)" style="fill-rule:evenodd;clip-rule:evenodd;fill:#FFB4A3;" width="38.423" height="31.125"/>
					<g>
						<path style="fill-rule:evenodd;clip-rule:evenodd;fill:#EFF973;" d="M250.41,307.524c6.177,4.983,11.655,10.038,14.943,16.499        c0.994,1.933,2.467,4.663,1.313,6.67c-0.16,0.281-0.363,0.515-0.603,0.707c-2.053,1.649-5.469-1.317-9.481-2.65        c-9.404-3.139-17.91-6.737-27.26-11.182c-6.818-3.242-14.175-5.101-15.818-9.819c-0.179-0.514-0.306-1.043-0.377-1.589        c-0.53-4.074,0.753-8.403,1.953-12.8c1.213-4.376,2.854-8.502,5.502-13.154c6.808,1.92,15.588,5.255,23.827,9.205        c1.777-5.01,5.411-5.537,10.815-3.6c1.846,0.664,4.788,2.179,5.203,3.421C261.265,291.766,252.528,304.993,250.41,307.524z"/>
						<g>
							<path style="fill:#F44040;" d="M263.061,296.977c0.218,0.248,0.407,0.542,0.555,0.863c0.366,0.75,0.309,1.566-0.167,2.433         c-1.747,3.225-9.173,6.878-12.072,7.305c-0.28,0.043-0.584-0.048-0.793-0.248c-0.199-0.196-0.287-0.484-0.228-0.74         c0.429-1.928,6.096-9.824,10.005-10.5C261.429,295.906,262.382,296.222,263.061,296.977L263.061,296.977 M252.722,305.563         c3.21-1.129,8.035-3.939,9.198-6.08c0.236-0.452,0.295-0.811,0.172-1.086c-0.101-0.198-0.191-0.332-0.304-0.467l0,0         c-0.187-0.206-0.432-0.387-0.994-0.292C258.268,298.085,254.332,302.893,252.722,305.563"/>
							<path style="fill:#F44040;" d="M267.025,304.062c0.513,0.574,0.714,1.307,0.589,2.195c-0.098,0.766-0.623,1.384-1.551,1.855         c-3.377,1.737-12.064,1.012-14.882-0.072c-0.28-0.101-0.484-0.324-0.555-0.603c-0.071-0.258,0.002-0.536,0.211-0.708         c1.379-1.245,9.174-4.195,13.478-3.8C265.557,303.046,266.46,303.418,267.025,304.062L267.025,304.062 M253.552,307.077         c3.502,0.669,9.35,0.807,11.613-0.347c0.489-0.242,0.741-0.514,0.788-0.79c0.042-0.422-0.032-0.731-0.194-0.923         c-0.238-0.282-0.746-0.465-1.467-0.529C261.289,304.224,256.143,305.901,253.552,307.077"/>
							<polygon style="fill:#F44040;" points="262.639,313.698 251.895,306.684 250.997,307.96 261.743,314.968        "/>
						</g>
						<g>
							<path style="fill:#FFFFFF;" d="M259.868,321.767c-8.818-0.41-17.272-5.873-20.222-12.357         c-3.863-8.498-1.745-10.847,1.262-19.198c0.216-0.607,0.471-1.334,0.748-2.085c0.923,0.421,1.843,0.848,2.754,1.284         c0.263-0.743,0.574-1.376,0.92-1.928c-0.221,0.399-0.434,0.802-0.601,1.214c-4.388,10.994-5.804,22.123,6.604,27.927         c3.421,1.603,6.584,2.157,9.159,2.167c0.457,0.002,0.918-0.066,1.394-0.154c0.746,0.966,1.465,1.947,2.101,2.978         C262.602,321.868,261.005,321.816,259.868,321.767z"/>
							<path style="fill:#FFFFFF;" d="M216.602,294.269c9.485,3.029,11.91,10.065,11.242,17.209         c-0.155,1.663-0.439,5.659-1.784,6.732c-0.756-0.377-1.502-0.756-2.226-1.141c-0.179-1.296,0.53-3.233,0.79-4.87         c1.112-7.123-2.28-13.155-8.97-15.315c-0.454-0.15-0.959-0.188-1.458-0.232c0.243-0.946,0.505-1.899,0.768-2.857         C215.54,293.925,216.107,294.104,216.602,294.269z"/>
						</g>
						<path style="fill:#F44040;" d="M213.527,307.741c1.639,4.725,7.637,8.158,14.452,11.404c9.35,4.445,17.856,8.043,27.26,11.182        c4.012,1.334,8.761,2.702,10.813,1.06L213.527,307.741z"/>
					</g>
				</g>
				<g>
					<path style="fill-rule:evenodd;clip-rule:evenodd;fill:#F44040;" d="M229.654,262.54c0.054,0.048,29.017,12.237,32.016,13.773       c0.923-1.473,17.441-32.024,24.119-46.498c4.236-9.166,10.727-23.746,4.796-34.471c-6.516-11.785-32.198-10.901-48.675-8.094       c-17.257,2.936-32.326,8.156-47.556,12.42c1.693-4.144,3.472-8.219,5.055-12.488c-18.089-7.913-36.265-15.727-55.213-22.761       c-8.101,4.664-16.568,12.654-23.451,21.67c-6.638,8.711-12.244,18.375-12.931,30.805c-0.518,9.462,2.316,17.37,6.911,21.894       c13.927,13.708,44.53,11.214,67.459,7.295c23.839-4.075,46.535-16.208,66.222-23.044       C243.652,232.615,230.041,261.646,229.654,262.54z"/>
					<g>
						<g>
							<path style="fill-rule:evenodd;clip-rule:evenodd;fill:#FFFFFF;" d="M281.389,220.423c1.946,0.51,3.004-2.431,3.261-4.998         c0.26-2.55,0.246-5.263-0.987-5.534c-1.953-0.412-2.157,3.137-2.427,5.155C281.008,216.72,279.349,219.88,281.389,220.423z"/>
							<path style="fill-rule:evenodd;clip-rule:evenodd;fill:#FFFFFF;" d="M288.55,208.772c2.378,0.585,2.378-6.229,0.447-6.377         C286.28,202.187,285.946,208.126,288.55,208.772z"/>
							<path style="fill-rule:evenodd;clip-rule:evenodd;fill:#FFFFFF;" d="M283.973,204.252c1.509-0.88,1.379-5.084,0.876-7.594         c-0.179-0.883,0.044-1.207-0.94-1.142c-1.522,0.109-1.315,2.766-1.468,4.655C282.275,202.127,281.632,204.28,283.973,204.252         z"/>
						</g>
						<g>
							<path style="fill:#C12B2B;" d="M256.654,209.053c-1.821-0.617-10.614,9.712-14.916,16.454         c2.238-0.874,4.449-1.691,6.618-2.443c1.662-2.516,3.284-4.941,4.909-7.323C254.627,213.752,257.39,209.3,256.654,209.053z"/>
							<path style="fill:#C12B2B;" d="M172.188,206.024c0.29,1.374,5.389-0.444,7.794-1.247c5.205-1.757,10.342-3.523,15.343-5.381         c-0.319,0.092-0.65,0.186-0.972,0.274c1.08-2.634,2.182-5.244,3.259-7.895c-6.4,2.545-13.608,6.294-19.12,9.256         C176.031,202.355,171.94,204.848,172.188,206.024z"/>
						</g>
						<g>
							<path style="fill-rule:evenodd;clip-rule:evenodd;fill:#FFFFFF;" d="M120.374,231.934c-0.496-0.207,6.015,5.058,3.34,6.979         c-1.934,1.384-4.992-3.627-5.129-5.725C118.781,232.582,119.628,231.987,120.374,231.934z"/>
							<path style="fill-rule:evenodd;clip-rule:evenodd;fill:#FFFFFF;" d="M115.127,221.481c1.534,1.147,2.604,9.993-0.684,9.896         c-2.155-0.053-2.965-7.192-1.446-9.577C113.493,221.454,114.202,221.343,115.127,221.481z"/>
						</g>
					</g>
				</g>
			</g>
			<g>
				<g>
					<g>
						<path style="fill-rule:evenodd;clip-rule:evenodd;fill:#FFB4A3;" d="M256.899,32.51c-3.502-1.799-7.858-2.252-10.006,0.34        c-7.296,8.764,5.193,16.709,4.906,17.864c-2.339,9.327-7.269,22.957-8.538,28.21c-1.217,5.139,19.346,16.072,24.75,6.633        c0,0,3.431-8.207,5.269-11.856c4.906,0.932,11.655,0.555,15.716-3.275c2.211-2.11,4.8-6.767,5.676-10.917        c0.496-2.317,0.542-5.571,0.68-9.1c0.201-5.934,3.267-10.404,3.051-16.234c-0.133-3.441-2.886-7.724-3.568-9.567        c-1.443-3.933-5.406-7.95-11.414-9.894c-8.717-2.807-19.792,0.581-24.325,8.43C257.068,26.643,256.894,29.349,256.899,32.51"/>
						<path style="fill-rule:evenodd;clip-rule:evenodd;fill:#DD9083;" d="M260.06,62.998c-0.987,4.517,1.946,15.354,10.04,17.657        l3.18-6.953C266.242,71.499,263.128,67.308,260.06,62.998"/>
						<path style="fill:#C12B2B;" d="M257.621,65.63c-0.265,0.695-0.648,1.663-0.368,2.325l1.406,0.329        c0.361-0.469,0.204-1.301,0.483-1.961c0.471-1.141,1.509-1.95,2.057-3.043c1.21-2.409,1.377-5.294,0.39-7.315        c1.092,0.999,2.319,3.137,2.056,5.537c-0.14,1.226-1.332,3.345,0.125,3.732c0.695-0.123,0.648-0.947,0.849-1.481        c2.97-7.722-4.641-12.15-9.495-16.037c-4.165,0.083-7.159-5.175-6.27-8.384c0.395-1.43,1.706-2.556,3.269-2.416        c3.387,0.276,4.803,3.318,5.836,5.911c1.198-1.957,2.219-3.755,4.096-5.257c1.698-1.348,3.711-2.383,4.709-4.27        c1.782-3.375,0.861-8.111,3.234-10.846c-1.772,4.014-0.844,10.218-3.396,13.658c-0.781,1.066-2.69,2.214-2.059,3.058        c0.464,0.622,1.612-0.456,2.059-0.866c1.178-1.091,2.282-2.636,2.95-4.686c0.933-2.862,0.783-5.977,1.595-8.645        c1.374-4.477,4.528-5.696,8.415-6.659c2.913,7.405,7.51,13.78,17.77,16.658c0.007,3.19-1.129,5.954-1.627,9.034        c-0.64,3.827-0.776,9.329-1.062,12.796c-1.141,13.486-13.485,17.093-13.485,17.093l11.532,2.73        c-0.015-0.541,0.12-1.148,0.589-2.405c-0.093,0.898-0.096,1.857,0.233,2.597l6.334,1.494c-0.128-1.052-0.979-1.87-0.859-3.095        c0.128-1.312,1.35-2.259,1.686-3.793c0.061,1.416-0.589,2.658-0.719,3.957c-0.145,1.46,1.521,2.238,1.843,3.392l2.933,0.697        c0.896-1.081,1.409-1.907,1.723-3.319c0.427-1.912-0.446-3.976,0.162-5.675c0.802-2.252,3.593-2.507,3.779-5.334        c0.081,1.804-0.78,3.03-1.772,3.945c-0.479,0.45-1.225,1.087-1.055,1.814l4.197,1.049c1.531-2.243,3.35-4.819,3.944-7.918        c0.663-3.422-0.361-6.755-1.752-8.991c-1.112-1.81-3.114-3.329-3.993-5.149c-3.468-7.183,1.953-12.572,2.559-19.319        c0.427-4.655-0.589-8.948-3.173-12.187c-1.985-2.476-4.719-4.049-7.622-5.499c-3.097-1.555-8.867-2.092-11.686-4.047        c-4.035-2.778-5.399-7.76-12.742-8.726c-4.152-0.54-7.323,0.86-9.846,3.9c-2.714-1.464-4.864-3.063-8.741-3.579        c-6.499-0.847-12.585,2.839-15.336,9.334c-1.384,3.303-2.363,7.294-4.719,9.323c-2.076,1.804-5.34,3.068-7.402,4.977        c-1.6,1.5-3.191,4.792-3.721,7.204c-0.967,4.441,0.461,7.912,2.405,10.497c0.942,1.26,2.263,2.198,3.232,3.448        c0.812,1.076,1.981,3.236,1.6,4.583c-0.935,3.339-9.093,2.991-8.631,9.202l5.35,1.136c0.773-3.454,3.745-3.357,5.458-5.279        c-1.026,2.162-5.146,3.392-4.874,7.151l10.68,2.524c0.28-1.014,0.8-1.73,1.392-2.421c-0.16,0.995-0.177,1.944,0.047,2.757        l12.266,2.891c0.658-2.827,2.378-3.976,3.455-6.121C260.102,62.863,258.146,64.297,257.621,65.63 M297.51,32.835        c-7.348-1.55-12.285-6.517-14.565-11.024c3.021,3.715,7.588,7.193,12.789,9.239c0.55,0.22,1.212,0.438,1.806,0.599        L297.51,32.835z"/>
						<g>
							<g>
								<g>
									<g>
										<path style="fill-rule:evenodd;clip-rule:evenodd;fill:#FFFFFF;" d="M271.025,41.347            c6.14-4.359,10.025,0.801,10.025,0.801s-1.671,1.715-5.2,1.601C273.224,43.669,271.025,41.347,271.025,41.347"/>
										<path style="fill-rule:evenodd;clip-rule:evenodd;fill:#484FA3;" d="M281.045,42.146c0,0-1.87-2.523-5.139-2.546            c-0.14,0.228-0.461,0.671-0.525,0.946c-0.316,1.226,0.356,2.499,1.539,3.176            C279.717,43.521,281.045,42.146,281.045,42.146"/>
									</g>
									<path style="fill:#C12B2B;" d="M270.924,38.356c4.327-2.67,9.365-0.71,10.999,0.596l1.158-1.445           c-2.596-2.074-8.378-3.682-13.134-0.726L270.924,38.356z"/>
								</g>
								<g>
									<g>
										<path style="fill-rule:evenodd;clip-rule:evenodd;fill:#FFFFFF;" d="M287.757,42.739c5.703-4.048,9.298,0.741,9.298,0.741            s-1.561,1.601-4.822,1.491C289.794,44.89,287.757,42.739,287.757,42.739"/>
										<path style="fill-rule:evenodd;clip-rule:evenodd;fill:#484FA3;" d="M297.056,43.48c0,0-1.735-2.339-4.771-2.364            c-0.132,0.212-0.434,0.626-0.493,0.881c-0.285,1.133,0.334,2.313,1.431,2.952C295.811,44.744,297.056,43.48,297.056,43.48            "/>
									</g>
									<path style="fill:#C12B2B;" d="M287.691,40.017c3.99-2.468,8.624-0.647,10.128,0.552l1.163-1.444           c-2.425-1.941-7.826-3.432-12.263-0.688L287.691,40.017z"/>
								</g>
								<path style="fill-rule:evenodd;clip-rule:evenodd;fill:#FFFFFF;" d="M271.594,52.962          c-3.251,4.192,1.068,10.894,7.568,12.786c2.363,0.682,6.732,0.535,8.084-1.838c2.383-4.14-1.961-5.242-5.46-6.989          C278.387,55.206,274.323,49.466,271.594,52.962"/>
								<path style="fill-rule:evenodd;clip-rule:evenodd;fill:#DD9083;" d="M282.258,55.001c10.418,0.983,4.572-8.122,3.323-12.641          c-0.076-0.263-0.037-0.722-0.351-0.881C283.467,40.591,281.843,51.05,282.258,55.001"/>
								<path style="fill-rule:evenodd;clip-rule:evenodd;fill:#DD9083;" d="M264.006,46.43c-0.78,1.798,0.044,3.902,1.836,4.673          c1.801,0.784,3.885-0.041,4.665-1.837c0.788-1.799-0.039-3.875-1.833-4.663C266.875,43.819,264.789,44.636,264.006,46.43"/>
							</g>
						</g>
					</g>
					<g>
						<g>
							<path style="fill-rule:evenodd;clip-rule:evenodd;fill:#FFFFFF;" d="M253.652,7.686c-2.631-0.832,2.314-5.997,3.247-3.443         C257.385,5.575,254.926,7.259,253.652,7.686z"/>
							<path style="fill-rule:evenodd;clip-rule:evenodd;fill:#FFFFFF;" d="M248.965,8.765c0.533-0.235,1.752-0.434,2.152,0.67         c0.518,1.446-1.463,3.81-2.066,4.897c-0.736,1.32-1.531,4.142-3.235,4.155c-2.432,0.018-0.584-3.975,0.11-5.321         c0.363-0.719,0.793-1.384,1.136-1.975C247.652,10.18,247.932,9.224,248.965,8.765z"/>
						</g>
						<g>
							<path style="fill-rule:evenodd;clip-rule:evenodd;fill:#FFFFFF;" d="M232.932,29.403c-2.631-0.833,2.314-5.997,3.239-3.442         C236.662,27.293,234.201,28.975,232.932,29.403z"/>
						</g>
					</g>
				</g>
				<g>
					<g>
						<path style="fill:#484FA3;" d="M179.928,117.922c2.015-2.701,4.044-5.398,6.123-8.069c6.97-8.962,14.565-18.659,23.388-26.596        c9.23-8.3,20.247-15.164,35.675-15.462c0.535-0.011,1.055,0.001,1.576,0.011c1.74,10.551,10.293,17.543,21.14,17.958        c0.14,5.312,18.317,44.781,8.989,55.754c-9.269,10.901-28.936,9.575-33.643,13.538c-3.811,3.214-7.632,6.438-11.434,9.583        C217.091,155.261,194.385,138.634,179.928,117.922z"/>
						<g>
							<path style="fill:#FFB4A3;" d="M143.065,165.094c0,0,14.661-18.128,21.638-26.945c5.166-6.523,10.126-13.39,15.225-20.227         c14.457,20.711,37.163,37.339,51.814,46.717c-11.292,9.337-22.409,17.956-32.613,23.411         C199.129,188.05,156.81,171.044,143.065,165.094z"/>
							<g>
								<path style="fill-rule:evenodd;clip-rule:evenodd;fill:#FFFFFF;" d="M198.491,182.251c0.613,2.372,6.621-0.841,5.843-2.616          C203.527,177.809,198.027,180.415,198.491,182.251z"/>
								<path style="fill-rule:evenodd;clip-rule:evenodd;fill:#FFFFFF;" d="M200.327,176.08c1.482,0.913,4.884-0.341,6.857-1.962          c0.702-0.583,1.332-1.375,0.817-2.217c-0.822-1.294-3.065,0.143-4.805,0.902          C201.397,173.583,199.195,174.031,200.327,176.08z"/>
							</g>
						</g>
					</g>
					<g>
						<path style="fill-rule:evenodd;clip-rule:evenodd;fill:#FFFFFF;" d="M218.242,83.292c-3.313-1.532,4.037-7.485,4.837-3.976        C223.491,81.145,219.982,82.941,218.242,83.292z"/>
						<path style="fill-rule:evenodd;clip-rule:evenodd;fill:#FFFFFF;" d="M211.905,83.927c0.739-0.224,2.38-0.28,2.714,1.237        c0.442,1.983-2.55,4.758-3.524,6.084c-1.185,1.61-2.702,5.178-4.938,4.912c-3.198-0.382-0.108-5.313,1.026-6.966        c0.606-0.879,1.281-1.681,1.831-2.399C209.952,85.565,210.482,84.356,211.905,83.927z"/>
					</g>
				</g>
				<g>
					<path style="fill-rule:evenodd;clip-rule:evenodd;fill:#FFB4A3;" d="M270.343,125.163c3.252,4.509,26.647,30.7,36.409,41.476       c8.533,9.423,35.492,32.119,39.236,34.451l0,0c1.998,0.988,3.91,1.947,5.36,2.617c2.611,1.211,5.335,2.473,7.858,3.604       c2.393,1.067,10.263,4.531,9.009,7.383c-1.028,2.355-8.175-1.8-10.391-2.109c2.516,2.539,5.806,7.198,7.767,12.563       c0.518,1.416,1.772,4.327,0.437,4.989c-1.823,0.899-2.925-1.384-3.661-2.333c-1.021-1.332-1.936-2.219-2.577-3.484       c0.317,2.043,2.341,6.279,2.317,8.74c-0.01,0.796-0.373,1.772-1.109,1.968c-1.703,0.453-2.457-1.906-3.298-3.364       c-1.134-1.972-2.037-3.192-2.783-4.56c-0.015-0.064-0.034-0.136-0.049-0.193c0.01,0.053,0.025,0.107,0.032,0.161       c0.003,0.012,0.012,0.022,0.017,0.032c0.422,1.659,2.388,6.138,2.449,8.523c0.022,0.953-0.272,2.095-1.232,2.318       c-2.01,0.459-3.289-3.434-3.951-4.724c-1.146-2.253-2.106-3.756-3.014-5.7c0.091,1.745,2.184,6.344,2.434,9.376       c0.108,1.261-0.034,2.74-1.283,2.978c-1.568,0.291-3.041-2.786-3.576-3.811c-2.57-4.921-5.473-10.397-8.418-13.928       c-2.248-2.688-4.594-4.949-7.259-7.001c-12.126-7.838-35.238-25.295-45.264-35.252c-10.359-10.287-33.192-32.871-39.847-42.076       C250.833,136.706,266.333,127.339,270.343,125.163z"/>
					<path style="fill:#DD9083;" d="M251.559,135.522c8.533,11.202,25.616,30.101,34.011,39.425       c9.456,10.502,31.553,29.216,43.229,37.719c1.369,1.185,2.643,2.431,3.858,3.763c-0.518-0.439-1.045-0.874-1.59-1.293       c-12.126-7.838-35.238-25.295-45.264-35.252c-10.359-10.287-33.192-32.871-39.847-42.076       C247.225,137.52,249.23,136.663,251.559,135.522z"/>
					<g>
						<g>
							<path style="fill:#7678C7;" d="M233.143,82.321c9.924-2.524,18.347,5.116,23.864,9.874         c12.246,10.547,21.537,22.22,31.025,34.746L258.3,152.616c-5.141-5.161-10.104-10.452-14.722-15.92         c-4.022-4.749-8.359-10.128-12.148-16.31c-3.566-5.814-7.033-13.083-7.549-21.118         C223.368,91.318,226.483,84.009,233.143,82.321z"/>
							<path style="opacity:0.2;fill:#FFFFFF;" d="M233.143,82.321c9.924-2.524,18.347,5.116,23.864,9.874         c12.246,10.547,21.537,22.22,31.025,34.746L258.3,152.616c-5.141-5.161-10.104-10.452-14.722-15.92         c-4.022-4.749-8.359-10.128-12.148-16.31c-3.566-5.814-7.033-13.083-7.549-21.118         C223.368,91.318,226.483,84.009,233.143,82.321z"/>
						</g>
						<g>
							<g>
								<path style="fill-rule:evenodd;clip-rule:evenodd;fill:#FFFFFF;" d="M248.761,96.993c2.106,0.432,6.189,4.376,4.614,6.01          c-1.639,1.685-5.59-2.498-6.13-4.471C247.32,97.92,248.044,97.199,248.761,96.993z"/>
								<path style="fill-rule:evenodd;clip-rule:evenodd;fill:#FFFFFF;" d="M260.482,101.557c1.306-2.895,4.471,0.798,6.359,3.262          c1.271,1.663,2.592,3.757,1.34,4.706c-1.774,1.345-7.664-5.39-7.88-7.303C260.281,102.053,260.408,101.729,260.482,101.557z          "/>
							</g>
							<path style="fill-rule:evenodd;clip-rule:evenodd;fill:#FFFFFF;" d="M246.233,88.305c1.904-0.231,8.791,5.222,6.351,7.381         c-1.598,1.406-7.11-3.029-7.667-5.722C245.046,89.391,245.475,88.837,246.233,88.305z"/>
						</g>
					</g>
				</g>
			</g>
		</g>
	</g>
</g>















</svg>
