<?xml version="1.0" encoding="UTF-8"?>
<!-- Generator: Adobe Illustrator 25.2.3, SVG Export Plug-In . SVG Version: 6.00 Build 0)  -->
<svg xmlns="http://www.w3.org/2000/svg" xmlns:xlink="http://www.w3.org/1999/xlink" version="1.1" id="Capa_1" x="0px" y="0px" viewBox="0 0 512 512" style="enable-background:new 0 0 512 512;" xml:space="preserve" width="512" height="512">
<g>
	<g>
		<path style="fill:#FFFFFF;" d="M122.643,512c-0.716,0-1.516-0.062-2.223-0.176c-1.586-0.267-3.062-0.781-4.401-1.492H39.194    c-3.659,0-7.164-1.468-9.732-4.073c-2.569-2.604-3.985-6.132-3.932-9.791c0.932-64.57,3.077-133.217,12.388-197.759    c5.82-40.338,14.697-77.668,26.429-111.164l-7.556-2.5c-5.577-1.844-9.351-7.044-9.376-12.918    c-0.023-5.874,3.709-11.105,9.271-12.996l13.831-4.698l4.698-13.83c1.883-5.542,7.085-9.27,12.939-9.27    c0.116,0,0.231,0.002,0.347,0.005c3.416-6.586,6.947-12.936,10.567-19.003c21.71-36.436,48.547-65.35,77.714-83.76    c1.608-1.75,3.344-3.234,5.258-4.497c1.797-1.183,3.74-2.155,5.814-2.905c1.766-1.77,3.613-3.209,5.32-4.45    C207.208,6.528,221.298,0.929,235.051,0.08c0.841-0.051,1.697-0.08,2.56-0.08c6.737,0,12.573,1.743,17.044,5.008    c11.441,0.08,22.773,1.635,33.699,4.624c28.829,7.874,53.132,25.449,68.425,49.486c2.735,4.304,5.132,8.685,7.451,12.925    c4.004,7.318,7.786,14.23,12.573,19.419c6.733,7.293,16.361,12.055,26.555,17.095c6.327,3.127,12.821,6.339,19.049,10.342    c1.7-3.025,4.322-5.503,8.347-6.739c0.309-0.109,0.624-0.207,0.943-0.294c1.696-3.901,4.671-7.14,9.696-8.728    c1.488-0.474,3.065-0.718,4.655-0.718c2.945,0,5.843,0.847,8.382,2.453c0.05,0.031,0.099,0.062,0.148,0.093    c0.775-0.122,1.543-0.183,2.311-0.183c3.087,0,6.064,0.95,8.609,2.747c2.521,1.763,4.394,4.05,5.88,7.593    c8.518,3.492,9.963,12.696,10.672,17.215c0.066,0.414,6.251,42.357,3.879,52.631c-0.369,1.61-1,3.101-1.843,4.43    c-2.382,6.179-6.461,10.93-9.846,14.075c-0.462,0.603-0.978,1.17-1.545,1.697c-0.685,0.634-5.892,5.338-15.407,10.54    c-0.551,33.356-2.597,68.407-6.225,106.774c0.172,0.807,0.3,1.644,0.381,2.509c0.33,3.49-0.227,6.753-1.555,9.553    c-4.938,48.667-12.2,101.022-22.795,164.375c-1.102,6.583-6.802,11.41-13.479,11.41h-64.671c-1.702,0.752-3.573,1.163-5.518,1.163    h-62.155c-1.925,0-3.8-0.405-5.517-1.163H195.96c-1.699,0.752-3.564,1.163-5.493,1.163h-64.053    C125.211,511.824,123.946,512,122.643,512z"/>
	</g>
	<g>
		<g>
			<path style="fill:#8662FF;" d="M444.963,205.968c-0.763,95.854-14.368,196.424-30.135,290.698H40.406     c0.933-64.692,3.03-132.104,12.249-196.006c9.219-63.903,27.041-127.178,59.359-181.32c20.09-33.717,46.75-64.182,79.004-82.701     c2.289-1.324,4.62-2.579,6.972-3.741c2.734-1.418,5.51-2.719,8.329-3.927c3.369-1.464,6.803-2.788,10.278-3.95     c1.038-0.372,2.077-0.72,3.136-1.046c10.236-3.207,20.938-4.973,31.661-5.252c11.656-0.349,23.354,1.022,34.564,4.09     c24.244,6.623,46.22,21.192,60.503,43.64c7.247,11.41,12.482,24.492,21.51,34.275c14.347,15.546,36.238,20.472,52.641,32.695     c0.085,0.046,0.191,0.116,0.276,0.209c1.356,0.999,2.67,2.068,3.942,3.207c0.148,0.116,0.297,0.255,0.445,0.395     c0.042,0.047,0.106,0.093,0.169,0.139c2.331,2.138,4.514,4.508,6.485,7.134c1.441,1.929,2.734,3.974,3.878,6.065     c0.339,0.604,0.657,1.208,0.954,1.836c3.37,6.785,5.383,14.291,6.57,22.099c0.636,4.113,1.038,8.296,1.271,12.502     c0.106,1.58,0.169,3.16,0.212,4.741c0.042,0.836,0.064,1.65,0.085,2.486C444.984,198.16,444.984,202.087,444.963,205.968z"/>
		</g>
		<g>
			<g>
				<g>
					<path style="fill:#FFAAAA;" d="M327.086,168.987c0,0,62.511,18.899,76.758,20.352c14.247,1.454,60.767,5.815,60.767,5.815       s-22.194,20.643-63.868,21.806c-37.564,1.048-110.582-23.842-110.582-23.842L327.086,168.987z"/>
				</g>
				<g>
					<path style="fill:#AF95FF;" d="M246.839,144.855c0,0,12.793-9.498,37.992-0.581c25.198,8.916,49.234,21.709,49.234,21.709       l-56.6,41.868l-43.031-47.295L246.839,144.855z"/>
				</g>
				<g>
					<path style="fill:#AF95FF;" d="M191.015,135.551c0,0-41.868,0.582-53.498,35.472c-11.63,34.89-61.058,161.658-61.058,161.658       s76.177,41.286,148.864,2.907c0,0,54.661-145.957,55.243-152.935c0.581-6.978-33.727-37.797-33.727-37.797L191.015,135.551z"/>
				</g>
				<g>
					<path style="fill:#FFAAAA;" d="M238.31,180.327l46.132,13.956l89.551-8.916l4.652,32.176c0,0-81.022,18.221-111.261,17.057       c-30.238-1.163-61.639-8.529-61.639-8.529L238.31,180.327z"/>
				</g>
				<g>
					<g>
						<path style="fill:#FFAAAA;" d="M246.632,109.043l0.226,33.108l0.04,5.163c0,0,4.409,16.888-14.402,18.67        c-18.808,1.808-43.031-30.044-43.031-30.044l2.922-32.041l16.347,1.552L246.632,109.043z"/>
					</g>
					<g>
						<path style="fill:#2C2441;" d="M246.632,109.043l0.226,33.108c-9.204,1.717-18.902,1.501-27.524-2.08        c-7.837-3.285-16.014-10.36-18.13-18.952c-1.336-5.498,2.916-11.652,7.529-15.668L246.632,109.043z"/>
					</g>
					<g>
						<g>
							<g>
								<path style="fill:#FFAAAA;" d="M271.528,63.154c-3.223-24.5-25.696-41.748-50.196-38.525          c-24.5,3.223-41.748,25.696-38.525,50.196c1.055,8.023,4.204,15.243,8.783,21.247c1.693,11.979,4.091,23.507,7.345,27.849          c7.819,10.433,53.402,13.462,62.253,2.811c9.835-11.836,10.058-32.893,10.068-50.066          C272.014,72.31,272.135,67.768,271.528,63.154z"/>
							</g>
							<g>
								<path style="fill:#FFAAAA;" d="M195.724,87.906c-2.47-5.241-7.796-9.024-13.558-9.63c-2.599-0.273-5.356,0.101-7.518,1.569          c-2.481,1.684-3.876,4.583-4.617,7.488c-0.969,3.804-0.936,8.062,1.114,11.409c2.392,3.906,7.149,5.877,11.727,6.021          c4.577,0.144,9.051-1.271,13.361-2.818C195.43,97.615,197.602,91.891,195.724,87.906z"/>
							</g>
						</g>
						<g>
							<path style="fill:#2C2441;" d="M189.405,101.208c-0.573,0-1.045-0.458-1.06-1.034c-0.115-4.38-1.72-9.1-4.642-13.648         c-1.033-1.607-2.475-3.592-4.478-4.663c-0.516-0.276-0.712-0.919-0.435-1.435c0.275-0.52,0.913-0.716,1.437-0.435         c2.433,1.301,4.09,3.562,5.262,5.386c3.132,4.875,4.853,9.971,4.977,14.74c0.016,0.585-0.447,1.073-1.033,1.089         C189.423,101.208,189.414,101.208,189.405,101.208z"/>
						</g>
						<g>
							<g>
								<g>
									<g>
										<path style="fill:#2C2441;" d="M234.413,83.36c0.099,2.427-1.507,4.463-3.587,4.548c-2.08,0.085-3.846-1.813-3.946-4.24            c-0.099-2.427,1.506-4.463,3.586-4.548C232.547,79.035,234.313,80.934,234.413,83.36z"/>
									</g>
									<g>
										<path style="fill:#2C2441;" d="M266.24,82.635c0.099,2.427-1.506,4.463-3.586,4.548c-2.08,0.085-3.847-1.813-3.946-4.24            c-0.099-2.426,1.507-4.462,3.586-4.548C264.374,78.31,266.141,80.208,266.24,82.635z"/>
									</g>
								</g>
								<g>
									<path style="fill:#2C2441;" d="M252.313,99.375c-0.058,0-0.115-0.005-0.173-0.014l-6.705-1.108           c-0.578-0.097-0.969-0.642-0.874-1.22c0.094-0.58,0.636-0.963,1.219-0.875l5.307,0.877l-2.451-19.903           c-0.071-0.58,0.342-1.11,0.923-1.181c0.599-0.104,1.111,0.341,1.184,0.923l2.624,21.309           c0.04,0.332-0.077,0.663-0.319,0.894C252.848,99.269,252.584,99.375,252.313,99.375z"/>
								</g>
								<g>
									<path style="fill:#2C2441;" d="M225.044,68.591c-2.125,0.966-4.176,4.262-1.61,6.009c0.874,0.595,1.975,0.736,3.032,0.769           c1.438,0.045,2.906-0.086,4.237-0.631c1.357-0.555,3.215-1.923,3.111-3.577c-0.06-0.959-0.842-1.718-1.667-2.209           C230.044,67.697,227.273,67.577,225.044,68.591z"/>
								</g>
								<g>
									<path style="fill:#2C2441;" d="M265.016,73.59c1.943-0.683,4.003-3.42,1.885-5.155c-0.722-0.591-1.678-0.801-2.605-0.913           c-1.26-0.151-2.561-0.151-3.773,0.223c-1.236,0.382-2.977,1.439-3.014,2.901c-0.022,0.847,0.605,1.576,1.292,2.072           C260.552,73.985,262.978,74.307,265.016,73.59z"/>
								</g>
							</g>
							<g>
								<path style="fill:#2C2441;" d="M248.018,105.806c-0.253,0-0.508-0.009-0.76-0.03c-2.489-0.191-4.889-1.359-6.582-3.199          c-0.397-0.431-0.37-1.103,0.062-1.499c0.432-0.398,1.102-0.368,1.499,0.062c1.334,1.448,3.225,2.367,5.186,2.521          c1.95,0.127,3.974-0.461,5.518-1.683c0.459-0.361,1.127-0.285,1.49,0.173c0.364,0.458,0.287,1.126-0.173,1.49          C252.499,105.037,250.26,105.806,248.018,105.806z"/>
							</g>
						</g>
					</g>
				</g>
				<g>
					<path style="fill:#2C2441;" d="M179.417,78.041c2.875,0.464,3.573,0.658,5.495,2.192c3.1,2.476,6.072,5.113,8.901,7.896       c3.985-2.309,6.906-5.806,7.985-10.284c1.078-4.478,0.245-9.383-2.253-13.253c5.2,0.506,9.971-0.686,14.32-3.581       c3.453-2.299,5.8-6.187,6.226-10.313c0.426-4.126-1.078-8.412-3.989-11.367c-1.52-1.544-3.378-2.72-5.317-3.687       c-6.251-3.12-14.176-4.005-20.008-0.158c-6.665,4.396-8.512,13.188-9.795,21.069C179.912,63.128,179.046,70.249,179.417,78.041       z"/>
				</g>
				<g>
					<path style="fill:#2C2441;" d="M196.344,33.858c1.401-2.526,3.737-4.382,6.074-6.08c10.231-7.432,22.063-13.281,34.685-14.059       c4.692-0.289,10.098,0.5,12.709,4.409c1.211,1.813,1.694,4.15,3.348,5.572c2.069,1.778,5.131,1.475,7.856,1.351       c5.436-0.246,10.921,0.645,15.999,2.599c2.291,0.882,4.534,2.001,6.332,3.674c3.705,3.448,5.043,8.91,4.448,13.936       c-0.754,6.363-4.803,12.606-10.908,14.554c-5.634,1.798-11.957-0.337-16.483-4.143c-4.526-3.806-7.554-9.071-10.209-14.355       c0.351,2.087-0.955,3.658-2.777,4.733c-4.28,2.525-9.423,3.668-14.326,2.86c-4.903-0.809-9.504-3.641-12.163-7.838       c-0.626,2.398-2.677,4.271-5.025,5.064c-2.348,0.793-4.942,0.607-7.314-0.112C203.441,44.459,198.086,38.951,196.344,33.858z"/>
				</g>
				<g>
					<polygon style="fill:#AF95FF;" points="189.464,135.939 263.509,187.692 236.372,253.208 147.596,215.992      "/>
				</g>
				<g>
					<path style="fill:#2C2441;" d="M241.605,241.572c-0.093,0-0.188-0.014-0.282-0.039l-84.318-23.26       c-0.565-0.154-0.897-0.739-0.74-1.306c0.156-0.564,0.742-0.905,1.305-0.739l83.425,23.014l22.721-53.013       c-4.935-1.552-24.35-8.034-36.715-17.563c-13.694-10.558-40.8-22.719-41.071-22.841c-0.535-0.24-0.775-0.868-0.535-1.402       c0.238-0.534,0.861-0.778,1.401-0.536c0.274,0.124,27.607,12.386,41.502,23.099c13.64,10.514,36.926,17.489,37.16,17.558       c0.29,0.088,0.53,0.292,0.658,0.566c0.129,0.274,0.135,0.592,0.015,0.87l-23.551,54.95       C242.41,241.326,242.021,241.572,241.605,241.572z"/>
				</g>
				<g>
					<g>
						<path style="fill:#FFAAAA;" d="M344.639,497.829h-62.155l9.133-37.215L217.21,430.96l-5.102-2.027l-0.569-0.228l-0.524-0.205        l-2.551-1.025l2.232-1.503l0.137-0.091l0.865-0.592l74.112-50.152c0,0,1.458,0.865,3.94,2.414        c13.392,8.268,56.779,35.598,67.575,49.332C362.7,433.716,355.184,464.44,344.639,497.829z"/>
					</g>
					<g>
						<path style="fill:#2C2441;" d="M289.864,377.461l-78.689,57.941l-70.741,26.374c0,0-68.623-38.969-73.861-65.138        c-5.238-26.169,10.468-65.12,10.468-65.12l111.017,3.035l1.207,0.023l10.295,0.296l1.321,0.023l24.438,0.683L289.864,377.461z        "/>
					</g>
					<g>
						<g>
							<g>
								<path style="fill:#FFE4E8;" d="M211.562,429.39c-0.026,0-0.051-0.002-0.077-0.004c-0.311-0.043-0.531-0.329-0.488-0.641          c0.342-2.567-3.281-13.194-6.785-23.472c-4.329-12.698-8.805-25.827-7.935-29.312c1.592-6.372,22.273-17.715,23.152-18.196          c0.275-0.151,0.624-0.049,0.772,0.227c0.151,0.278,0.049,0.623-0.227,0.774c-0.211,0.113-21.12,11.579-22.592,17.471          c-0.791,3.158,3.83,16.713,7.907,28.67c3.871,11.352,7.214,21.156,6.835,23.99          C212.087,429.183,211.842,429.39,211.562,429.39z"/>
							</g>
						</g>
						<g>
							<g>
								<path style="fill:#FFE4E8;" d="M205.321,350.289c-0.478,1.093-1.572,1.549-2.824,1.549c-0.683,0-1.435-0.137-2.118-0.41          c-3.94-1.526-6.582-4.76-8.085-7.197c-1.867-3.052-3.097-6.423-4.236-9.68l1.207,0.023c1.093,3.097,2.255,6.24,3.986,9.042          c1.435,2.3,3.895,5.352,7.539,6.764c1.161,0.433,3.006,0.569,3.485-0.547c0.205-0.456,0.114-1.048,0.023-1.617          c-0.797-4.646-2.437-9.224-4.737-13.346l1.321,0.023c2.186,4.1,3.735,8.564,4.532,13.119          C205.549,348.741,205.64,349.538,205.321,350.289z"/>
							</g>
						</g>
					</g>
					<g>
						<path style="fill:#FFAAAA;" d="M211.585,435.105c-0.888,9.907-5.17,25.873-11.661,42.567        c-1.503,3.872-4.441,11.023-8.245,20.156h-67.825l10.568-38.764l-12.253-8.541l-7.911-4.936c0,0,29.07-49.725,56.992-46.628        c23.778,2.665,35.462,16.558,39.128,25.645c0.159,0.433,0.319,0.866,0.456,1.275c0.364,1.025,0.592,1.981,0.706,2.824        c0.023,0.045,0.023,0.068,0.023,0.114c0.023,0.182,0.046,0.365,0.068,0.547C211.79,430.915,211.767,432.85,211.585,435.105z"/>
					</g>
				</g>
				<g>
					<path style="fill:#FFAAAA;" d="M373.994,185.366c0,0,14.441-6.203,19.093-9.983c4.652-3.78,44.194-44.194,55.824-43.903       c11.63,0.291,6.687,16.573,3.489,21.806c-3.198,5.234-21.516,27.331-21.516,27.331s13.956-10.467,15.701-7.559       c1.744,2.907-27.331,33.436-38.088,38.379c-10.758,4.943-31.401,6.106-31.401,6.106L373.994,185.366z"/>
				</g>
				<g>
					<g>
						<g>
							<path style="fill:#2C2441;" d="M421.448,160.756c-0.241,0-0.481-0.081-0.68-0.246c-0.449-0.375-0.51-1.045-0.134-1.495         c4.299-5.149,8.827-10.238,13.462-15.127c0.404-0.426,1.078-0.444,1.5-0.039c0.425,0.403,0.443,1.073,0.04,1.499         c-4.603,4.859-9.103,9.913-13.374,15.025C422.052,160.627,421.751,160.756,421.448,160.756z"/>
						</g>
						<g>
							<path style="fill:#2C2441;" d="M427.674,164.514c-0.253,0-0.508-0.09-0.71-0.274c-0.435-0.391-0.47-1.062-0.078-1.497         c2.648-2.943,5.187-6.035,7.546-9.192c0.35-0.47,1.016-0.566,1.485-0.214c0.469,0.35,0.565,1.016,0.214,1.485         c-2.396,3.208-4.976,6.351-7.668,9.34C428.254,164.394,427.965,164.514,427.674,164.514z"/>
						</g>
						<g>
							<path style="fill:#2C2441;" d="M432.182,170.038c-0.257,0-0.513-0.092-0.717-0.281c-0.432-0.396-0.461-1.066-0.065-1.499         l4.521-4.928c0.397-0.433,1.067-0.463,1.499-0.062c0.432,0.396,0.461,1.066,0.064,1.499l-4.521,4.928         C432.754,169.923,432.469,170.038,432.182,170.038z"/>
						</g>
						<g>
							<path style="fill:#2C2441;" d="M433.854,173.292c-0.378,0-0.743-0.203-0.935-0.557c-3.103-5.745-8.088-10.399-14.037-13.107         c-0.533-0.242-0.769-0.87-0.526-1.405c0.243-0.532,0.868-0.776,1.406-0.525c6.367,2.895,11.702,7.878,15.025,14.028         c0.279,0.516,0.086,1.158-0.43,1.437C434.197,173.251,434.024,173.292,433.854,173.292z"/>
						</g>
					</g>
					<g>
						<path style="fill:#2C2441;" d="M285.072,195.49c-0.115,0-0.23-0.018-0.34-0.055l-20.206-6.835        c-0.555-0.189-0.853-0.792-0.665-1.347c0.186-0.555,0.79-0.847,1.345-0.665l19.996,6.765        c4.79-0.419,83.619-7.357,92.406-10.535c14.124-5.107,44.758-35.501,45.063-35.807c3.187-3.187,11.523-10.493,11.876-10.804        c0.441-0.382,1.11-0.341,1.497,0.099c0.387,0.442,0.342,1.112-0.099,1.499c-0.085,0.074-8.636,7.569-11.773,10.708        c-0.309,0.309-31.286,31.036-45.844,36.3c-9.275,3.355-89.743,10.376-93.164,10.673        C285.133,195.488,285.104,195.49,285.072,195.49z"/>
					</g>
					<g>
						<path style="fill:#2C2441;" d="M267.049,236.244c-13.307,0-22.415-1.741-22.546-1.766c-0.576-0.113-0.95-0.67-0.837-1.243        c0.113-0.576,0.669-0.949,1.245-0.838c0.188,0.037,18.913,3.606,41.905,0.378c21.498-3.021,63.425-9.559,84.2-14.901        c20.887-5.372,42.475-13.959,48.162-17.512c6.04-3.777,10.652-7.981,10.698-8.025c0.432-0.394,1.105-0.364,1.499,0.067        c0.396,0.431,0.367,1.103-0.064,1.499c-0.193,0.175-4.795,4.375-11.008,8.26c-6.715,4.193-28.992,12.683-48.757,17.765        c-20.867,5.368-62.892,11.921-84.435,14.947C279.866,235.892,273.031,236.244,267.049,236.244z"/>
					</g>
				</g>
				<g>
					<g>
						<path style="fill:#FFAAAA;" d="M462.576,196.318c0,0,10.467-6.687,11.049-16.573c0.582-9.886-3.489-51.754-6.687-51.463        c-3.198,0.291-3.198,21.806-3.198,21.806s-1.745-32.273-5.815-31.11c-4.071,1.163,0,33.727,0,33.727        s-6.396-37.798-11.049-36.053c-4.652,1.745,2.035,39.542,2.035,39.542s-7.85-32.855-12.502-31.11        c-4.652,1.744,1.163,52.626,1.163,52.626s-20.353-4.652-22.388,0.291c-2.035,4.943,20.353,20.353,26.749,22.678        C448.329,203.005,462.576,196.318,462.576,196.318z"/>
					</g>
					<g>
						<path style="fill:#2C2441;" d="M456.49,184.258c-0.169,0-0.341-0.042-0.5-0.127c-5.476-2.936-11.652-4.566-17.86-4.716        c-0.586-0.014-1.05-0.502-1.035-1.087c0.014-0.585,0.496-1.066,1.086-1.036c6.54,0.159,13.044,1.877,18.811,4.969        c0.517,0.276,0.712,0.919,0.434,1.437C457.235,184.055,456.868,184.258,456.49,184.258z"/>
					</g>
					<g>
						<g>
							<path style="fill:#2C2441;" d="M447.9,206.101c-0.06,0-0.121-0.005-0.181-0.014c-1.319-0.221-13.77-8.108-20.049-14.242         c-1.055-1.032-2.106-2.036-3.118-3.003c-5.98-5.708-9.93-9.48-8.045-12.052c1.621-2.211,12.914-0.831,20.418,0.371         c-2.413-19.753-5.525-51.337-0.928-52.523c0.395-0.101,1.016-0.133,1.736,0.302c3.441,2.072,7.637,15.893,9.996,24.637         c-2.796-12.964-6.092-32.383-1.176-33.935c0.485-0.154,1.237-0.223,2.082,0.311c2.505,1.577,4.775,8.796,6.524,16.338         c-0.192-7.762,0.372-13.745,2.477-14.334c0.512-0.138,1.049-0.044,1.513,0.283c1.806,1.264,3.182,7.825,4.151,14.696         c0.571-2.947,1.568-5.213,3.254-5.653c0.271-0.127,0.622-0.175,1.002-0.055c0.895,0.29,1.847,1.359,2.754,7.143         c1.164,7.412,5.416,41.762,4.057,47.65c-0.131,0.571-0.709,0.923-1.272,0.795c-0.571-0.131-0.927-0.702-0.796-1.273         c1.237-5.361-2.794-38.619-4.085-46.844c-0.548-3.491-1.059-4.815-1.317-5.292c-1.849,0.986-2.522,10.65-1.954,19.159         c0.038,0.583-0.401,1.089-0.984,1.131c-0.579-0.028-1.089-0.396-1.133-0.979c-0.949-12.518-2.995-26.659-4.725-28.588         c-1.436,2.056-0.861,17.641,0.586,31.303c0.061,0.576-0.35,1.094-0.923,1.165c-0.584,0.083-1.101-0.329-1.181-0.903         c-1.714-11.995-5.694-31.817-9.076-33.944c-0.193-0.12-0.273-0.092-0.312-0.085c-2.483,0.785-0.626,18.12,4.057,37.852         c0.107,0.454-0.094,0.926-0.499,1.161l-1.744,1.015c-0.29,0.17-0.645,0.187-0.952,0.06c-0.309-0.134-0.537-0.403-0.614-0.73         c-3.869-16.202-8.879-30.09-10.943-30.327c-2.002,1.987-0.244,27.822,2.706,51.611c0.04,0.334-0.077,0.665-0.319,0.898         c-0.241,0.233-0.573,0.336-0.909,0.281c-8.522-1.423-18.519-2.358-19.809-1.382c-0.732,1.013,4.432,5.943,7.849,9.206         c1.019,0.972,2.076,1.98,3.136,3.017c6.126,5.987,17.835,13.275,19.01,13.69c0.578,0.097,0.921,0.631,0.824,1.211         C448.902,205.742,448.416,206.101,447.9,206.101z"/>
						</g>
						<g>
							<path style="fill:#2C2441;" d="M444.17,161.055c-0.326,0-0.648-0.15-0.855-0.433c-0.348-0.472-0.246-1.135,0.226-1.483         c6.929-5.098,14.656-8.815,22.967-11.051c0.563-0.15,1.148,0.184,1.3,0.748c0.152,0.566-0.183,1.149-0.75,1.301         c-8.055,2.167-15.544,5.771-22.26,10.71C444.609,160.989,444.388,161.055,444.17,161.055z"/>
						</g>
					</g>
				</g>
			</g>
			<g>
				<path style="fill:#2C2441;" d="M123.855,498.891c-0.059,0-0.117-0.005-0.176-0.016c-0.578-0.097-0.968-0.643-0.872-1.221      c5.299-31.591,20.21-60.126,20.361-60.412c0.273-0.518,0.914-0.718,1.433-0.444c0.518,0.274,0.717,0.917,0.443,1.435      c-0.148,0.281-14.903,28.529-20.144,59.772C124.813,498.522,124.364,498.891,123.855,498.891z"/>
			</g>
		</g>
		<g>
			<path style="fill:#2C2441;" d="M260.002,248.723c0.653-0.062,1.272,0.175,1.859,0.709c0.584,0.532,0.913,1.186,0.987,1.967     c1.596,16.902,2.632,27.108,3.109,30.619c0.474,3.512,0.717,5.308,0.725,5.395c0.09,0.951-0.071,1.872-0.481,2.759     c-0.41,0.889-0.912,1.361-1.504,1.416c-0.592,0.058-1.043,0.069-1.356,0.035c-0.312-0.039-0.594-0.088-0.847-0.152     c-0.253-0.065-0.515-0.214-0.784-0.451l-0.672-0.59c-0.181-0.157-0.427-0.472-0.739-0.944c-0.312-0.472-0.564-0.85-0.757-1.137     c-0.191-0.288-0.496-0.792-0.914-1.515c-0.418-0.725-1.319-2.199-2.703-4.424c-1.384-2.227-2.633-4.223-3.748-5.992     c-3.816-5.964-7.283-10.632-10.402-14.001c1.326,14.049,1.881,23.833,1.659,29.348c-0.024,1.05-0.73,1.64-2.118,1.771     c-0.653,0.062-1.209-0.06-1.672-0.366c-0.46-0.304-0.728-0.845-0.801-1.626c-0.074-0.776-0.325-5.071-0.753-12.882     c-0.428-7.813-0.735-12.679-0.915-14.604c-0.182-1.923-0.297-3.146-0.346-3.664c-0.294-3.113-0.234-4.882,0.178-5.317     c0.411-0.431,0.864-0.668,1.352-0.714c2.245-0.212,6.042,3.355,11.39,10.701c1.04,1.428,3.052,4.433,6.04,9.015     c2.986,4.58,4.777,7.41,5.372,8.486l-3.276-26.841c-0.351-3.714-0.162-5.87,0.564-6.464     C258.829,248.962,259.349,248.782,260.002,248.723z"/>
			<path style="fill:#2C2441;" d="M283.8,246.279c2.857-0.269,5.378,0.472,7.562,2.229c4.269,3.35,6.784,9.034,7.54,17.049     c0.758,8.023-0.812,14.526-4.706,19.52c-2.029,2.501-4.502,4-7.42,4.49c-3.879,0.366-7.033-0.751-9.46-3.355     c-2.43-2.607-4.266-5.607-5.515-9.001c-1.246-3.394-2.023-6.71-2.329-9.952c-0.522-5.533,0.292-10.21,2.443-14.035     C274.164,249.13,278.126,246.816,283.8,246.279z M283.881,251.702c-5.471,0.516-8.619,3.583-9.447,9.202     c-0.272,1.508-0.296,3.408-0.081,5.699c0.216,2.291,0.874,4.909,1.977,7.859c1.488,3.961,3.387,6.659,5.706,8.099     c1.363,0.916,2.943,1.292,4.739,1.124c1.797-0.17,3.328-1.179,4.596-3.021c1.266-1.84,2.041-4.106,2.323-6.793     c0.281-2.687,0.296-5.372,0.043-8.053c-0.448-4.755-1.438-8.368-2.969-10.841C289.238,252.504,286.941,251.412,283.881,251.702z"/>
			<path style="fill:#2C2441;" d="M320.127,279.683c-0.707-4.423-1.417-10.429-2.133-18.019c-0.716-7.585-1.079-12.513-1.087-14.781     c0.074-1.402,0.884-2.406,2.433-3.01c1.55-0.606,3.63-1.032,6.243-1.278c3.836-0.361,7.155,0.21,9.952,1.711     c2.798,1.501,4.359,3.961,4.681,7.376c0.266,2.812,0.12,5.188-0.439,7.143c-0.557,1.948-1.342,3.426-2.36,4.442     c-1.657,1.64-4.241,2.623-7.751,2.954c-1.509,0.143-3.51,0.115-6-0.087c1.02,8.628,1.615,14.067,1.788,16.317     c0.17,2.254-0.439,3.443-1.826,3.574c-0.897,0.085-1.485-0.032-1.762-0.355c-0.279-0.325-0.466-0.555-0.562-0.7     c-0.097-0.143-0.198-0.362-0.309-0.659c-0.11-0.292-0.197-0.536-0.256-0.728c-0.06-0.191-0.115-0.479-0.173-0.868     c-0.057-0.384-0.117-0.684-0.178-0.898C320.287,281.17,320.199,280.461,320.127,279.683z M335.149,252.324     c-0.165-1.75-1.195-3.049-3.086-3.896c-1.893-0.845-3.858-1.174-5.9-0.981c-2.041,0.193-3.451,0.523-4.23,0.99     c0.077,2.568,0.218,4.919,0.419,7.058c0.201,2.139,0.466,4.069,0.793,5.782c1.113,0.025,1.88,0.064,2.295,0.108     c1.074,0.03,1.988,0.009,2.744-0.062c0.755-0.071,1.264-0.129,1.528-0.175c0.264-0.046,0.768-0.161,1.513-0.341     c0.744-0.177,1.268-0.412,1.57-0.705c0.3-0.29,0.677-0.672,1.126-1.154c0.449-0.477,0.748-1.006,0.9-1.591     C335.204,255.753,335.314,254.076,335.149,252.324z"/>
			<path style="fill:#2C2441;" d="M358.536,239.617c1.019-0.097,1.921,0.297,2.706,1.181c0.783,0.887,1.867,2.77,3.25,5.649     c3.238,6.802,6.791,17.611,10.66,32.425c0.056,0.17,0.1,0.414,0.131,0.737c0.031,0.327-0.13,0.691-0.485,1.094     c-0.352,0.405-0.887,0.64-1.6,0.707c-0.715,0.067-1.333-0.058-1.857-0.38c-0.526-0.32-0.908-0.893-1.152-1.722     c-0.243-0.827-0.705-2.45-1.386-4.873c-1.498-5.4-2.42-8.189-2.768-8.377c-0.518-0.253-2.172-0.426-4.959-0.511     c-2.787-0.085-4.632-0.085-5.53,0c-0.898,0.083-1.42,0.221-1.566,0.408c-0.67,0.762-1.176,6.109-1.513,16.041     c-0.086,0.836-0.823,1.322-2.211,1.453c-1.387,0.131-2.142-0.428-2.259-1.686c-0.295-3.111,0.226-9.158,1.561-18.136     c1.334-8.981,2.581-14.968,3.742-17.954C354.749,241.828,356.495,239.809,358.536,239.617z M358.97,246.837     c-0.612,0.058-1.495,2.07-2.642,6.04c-1.148,3.97-1.68,6.406-1.595,7.313c0.021,0.219,0.074,0.364,0.165,0.442     c0.359,0.318,1.673,0.497,3.943,0.546c2.269,0.046,3.772,0.037,4.507-0.032c0.734-0.069,1.138-0.163,1.209-0.281     c0.071-0.115,0.081-0.465,0.025-1.05c-0.055-0.583-0.831-2.906-2.328-6.975C360.758,248.771,359.663,246.77,358.97,246.837z"/>
			<path style="fill:#2C2441;" d="M378.789,239.208c0.592-0.49,1.295-0.778,2.113-0.854c0.815-0.076,1.372,0.373,1.672,1.349     c0.513,5.013,1.303,12.501,2.37,22.477c0.575,6.095,0.898,11.279,0.973,15.543c-0.022,0.659-0.344,1.267-0.971,1.828     c-0.626,0.56-1.288,0.87-1.982,0.937c-1.143,0.108-1.773-0.463-1.892-1.718c0-4.361-0.302-9.741-0.905-16.14l-2.425-21.754     C377.847,240.255,378.196,239.7,378.789,239.208z"/>
			<path style="fill:#2C2441;" d="M414.418,234.144c0.652-0.062,1.271,0.175,1.858,0.709c0.585,0.532,0.914,1.186,0.988,1.967     c1.596,16.902,2.631,27.11,3.107,30.622c0.474,3.509,0.717,5.305,0.725,5.393c0.09,0.951-0.071,1.872-0.481,2.759     c-0.409,0.889-0.912,1.361-1.504,1.416c-0.592,0.058-1.044,0.069-1.356,0.035c-0.311-0.039-0.593-0.085-0.846-0.15     c-0.254-0.064-0.516-0.214-0.785-0.451l-0.672-0.592c-0.181-0.154-0.427-0.472-0.739-0.944c-0.312-0.472-0.564-0.85-0.755-1.135     c-0.192-0.29-0.497-0.794-0.914-1.517c-0.419-0.725-1.321-2.199-2.706-4.424c-1.383-2.224-2.632-4.221-3.745-5.992     c-3.817-5.964-7.284-10.632-10.404-14.001c1.326,14.049,1.88,23.833,1.66,29.348c-0.025,1.05-0.731,1.639-2.12,1.771     c-0.653,0.062-1.209-0.06-1.671-0.364c-0.462-0.306-0.729-0.847-0.802-1.628c-0.074-0.776-0.324-5.071-0.753-12.881     c-0.428-7.811-0.733-12.679-0.914-14.604c-0.182-1.923-0.297-3.146-0.347-3.664c-0.294-3.113-0.235-4.882,0.177-5.315     c0.411-0.433,0.862-0.67,1.353-0.716c2.245-0.212,6.042,3.355,11.389,10.701c1.04,1.428,3.053,4.433,6.04,9.015     c2.986,4.582,4.777,7.412,5.372,8.488l-3.276-26.843c-0.351-3.714-0.162-5.87,0.564-6.464     C413.244,234.383,413.764,234.206,414.418,234.144z"/>
			<path style="fill:#2C2441;" d="M265.292,304.755c0.653-0.062,1.272,0.175,1.858,0.707c0.584,0.532,0.914,1.188,0.988,1.969     c1.596,16.902,2.631,27.108,3.108,30.617c0.474,3.514,0.717,5.31,0.725,5.398c0.09,0.951-0.07,1.87-0.48,2.759     c-0.41,0.889-0.913,1.361-1.505,1.416c-0.592,0.055-1.043,0.067-1.355,0.032c-0.313-0.037-0.595-0.085-0.849-0.15     c-0.252-0.065-0.513-0.216-0.784-0.449l-0.672-0.592c-0.181-0.159-0.426-0.472-0.738-0.944c-0.313-0.472-0.565-0.85-0.758-1.14     c-0.19-0.285-0.496-0.792-0.914-1.515c-0.418-0.723-1.319-2.197-2.703-4.423c-1.384-2.224-2.632-4.221-3.748-5.989     c-3.816-5.964-7.284-10.634-10.403-14.003c1.328,14.051,1.881,23.833,1.66,29.351c-0.024,1.05-0.731,1.639-2.12,1.771     c-0.653,0.062-1.209-0.06-1.671-0.366c-0.462-0.306-0.729-0.847-0.803-1.626c-0.072-0.778-0.324-5.073-0.752-12.881     c-0.428-7.813-0.735-12.679-0.917-14.604c-0.182-1.923-0.297-3.146-0.345-3.664c-0.295-3.113-0.234-4.884,0.178-5.315     c0.411-0.433,0.862-0.672,1.352-0.718c2.245-0.212,6.041,3.357,11.389,10.703c1.04,1.428,3.053,4.433,6.04,9.013     c2.986,4.583,4.777,7.41,5.372,8.488l-3.276-26.841c-0.35-3.717-0.162-5.872,0.564-6.466     C264.119,304.994,264.639,304.815,265.292,304.755z"/>
			<path style="fill:#2C2441;" d="M289.091,302.311c2.857-0.269,5.377,0.472,7.562,2.229c4.269,3.35,6.783,9.031,7.539,17.049     c0.758,8.02-0.811,14.526-4.706,19.518c-2.029,2.503-4.502,4.002-7.419,4.493c-3.879,0.366-7.033-0.751-9.461-3.357     c-2.429-2.604-4.266-5.605-5.514-9.001c-1.247-3.392-2.023-6.708-2.329-9.95c-0.523-5.533,0.291-10.213,2.443-14.037     C279.454,305.162,283.417,302.848,289.091,302.311z M289.17,307.734c-5.47,0.516-8.619,3.583-9.447,9.199     c-0.271,1.508-0.296,3.41-0.079,5.699c0.216,2.294,0.874,4.912,1.977,7.862c1.486,3.961,3.387,6.66,5.706,8.096     c1.363,0.917,2.942,1.292,4.738,1.124c1.797-0.17,3.327-1.177,4.596-3.021c1.266-1.838,2.041-4.103,2.323-6.791     s0.297-5.372,0.044-8.055c-0.449-4.753-1.438-8.366-2.969-10.839C294.527,308.536,292.232,307.444,289.17,307.734z"/>
			<path style="fill:#2C2441;" d="M338.752,297.685c1.96-0.184,3.956,0.15,5.994,1.006c2.037,0.854,3.117,1.93,3.24,3.226     c0.188,1.99-0.495,3.058-2.046,3.205c-0.572,0.053-1.608-0.242-3.111-0.887c-1.501-0.643-2.742-0.919-3.722-0.827     c-3.51,0.332-6.282,2.273-8.315,5.824c-2.033,3.551-2.805,7.898-2.32,13.04c0.364,3.85,1.477,7.148,3.342,9.895     c1.865,2.745,3.891,4.014,6.075,3.806c2.183-0.205,3.825-1.131,4.926-2.786c1.101-1.651,1.558-3.45,1.374-5.395     c-0.101-1.08-0.258-1.971-0.467-2.671c-0.211-0.7-0.629-1.315-1.256-1.842c-0.626-0.532-1.408-0.753-2.348-0.663     c-0.939,0.087-1.847-0.044-2.724-0.396c-0.877-0.352-1.352-0.898-1.421-1.635c-0.07-0.735,0.07-1.444,0.416-2.132     c0.346-0.689,0.861-1.128,1.545-1.324c2.775-0.26,4.671-0.134,5.687,0.382c1.017,0.511,1.788,0.942,2.314,1.283     c0.527,0.343,0.996,0.956,1.409,1.831c0.411,0.877,0.738,1.61,0.98,2.199c0.241,0.585,0.465,1.55,0.672,2.881     c0.295,2.241,0.584,4.861,0.868,7.868c0.283,3.003,0.253,4.87-0.091,5.6c-0.313,0.596-0.898,0.946-1.754,1.048     c-0.854,0.104-1.465-0.025-1.828-0.385c-0.364-0.357-0.648-1.202-0.855-2.535c-0.896,1.002-2.057,1.886-3.488,2.653     c-1.431,0.769-2.718,1.204-3.86,1.312c-3.592,0.339-6.803-1.395-9.635-5.206c-2.83-3.809-4.517-8.571-5.055-14.277     c-0.287-3.026-0.097-6.04,0.568-9.05c0.662-3.005,1.696-5.577,3.101-7.719C329.924,300.591,333.853,298.148,338.752,297.685z"/>
			<path style="fill:#2C2441;" d="M363.765,295.654c1.02-0.097,1.923,0.297,2.706,1.184c0.783,0.884,1.869,2.766,3.251,5.646     c3.238,6.805,6.791,17.614,10.659,32.425c0.058,0.17,0.101,0.417,0.131,0.739c0.031,0.327-0.129,0.691-0.484,1.094     c-0.352,0.403-0.887,0.638-1.6,0.707c-0.714,0.067-1.333-0.06-1.857-0.38c-0.525-0.32-0.91-0.896-1.151-1.723     c-0.244-0.829-0.707-2.455-1.387-4.877c-1.498-5.395-2.421-8.189-2.768-8.373c-0.518-0.256-2.171-0.428-4.959-0.513     c-2.789-0.087-4.632-0.085-5.529,0c-0.899,0.085-1.422,0.223-1.568,0.408c-0.669,0.762-1.173,6.109-1.513,16.041     c-0.085,0.838-0.823,1.322-2.211,1.453c-1.387,0.131-2.14-0.428-2.259-1.686c-0.294-3.111,0.226-9.158,1.562-18.138     c1.335-8.981,2.581-14.963,3.742-17.952C359.978,297.863,361.724,295.848,363.765,295.654z M364.2,302.873     c-0.612,0.058-1.494,2.072-2.643,6.042c-1.148,3.968-1.68,6.406-1.594,7.313c0.02,0.219,0.075,0.362,0.165,0.442     c0.358,0.315,1.673,0.495,3.943,0.541c2.268,0.048,3.771,0.039,4.505-0.03s1.139-0.163,1.21-0.279     c0.071-0.115,0.081-0.465,0.025-1.05c-0.055-0.583-0.831-2.908-2.328-6.975C365.989,304.81,364.893,302.809,364.2,302.873z"/>
			<path style="fill:#2C2441;" d="M384.018,295.247c0.592-0.491,1.295-0.778,2.113-0.857c0.815-0.076,1.372,0.373,1.672,1.349     c0.514,5.013,1.302,12.504,2.368,22.479c0.576,6.095,0.899,11.276,0.974,15.543c-0.022,0.656-0.344,1.266-0.971,1.826     c-0.626,0.562-1.288,0.873-1.981,0.937c-1.142,0.108-1.772-0.465-1.891-1.718c-0.002-4.359-0.303-9.743-0.907-16.14     l-2.425-21.754C383.076,296.294,383.425,295.74,384.018,295.247z"/>
			<path style="fill:#2C2441;" d="M419.647,290.181c0.652-0.06,1.271,0.175,1.857,0.709c0.585,0.532,0.915,1.188,0.989,1.969     c1.596,16.902,2.631,27.108,3.106,30.617c0.476,3.512,0.717,5.308,0.725,5.395c0.09,0.951-0.07,1.87-0.48,2.759     c-0.41,0.889-0.913,1.363-1.505,1.419c-0.59,0.055-1.043,0.067-1.354,0.03c-0.313-0.034-0.595-0.083-0.849-0.147     c-0.252-0.065-0.515-0.217-0.784-0.451l-0.674-0.592c-0.18-0.157-0.426-0.47-0.738-0.942c-0.313-0.472-0.565-0.852-0.755-1.14     c-0.191-0.286-0.497-0.792-0.915-1.517c-0.419-0.721-1.321-2.195-2.703-4.424c-1.385-2.222-2.633-4.219-3.748-5.987     c-3.817-5.964-7.283-10.634-10.401-14.003c1.326,14.051,1.879,23.833,1.659,29.35c-0.025,1.05-0.732,1.64-2.12,1.771     c-0.654,0.06-1.21-0.06-1.671-0.366c-0.462-0.306-0.73-0.85-0.804-1.628c-0.073-0.778-0.322-5.071-0.751-12.879     c-0.429-7.813-0.734-12.679-0.917-14.604c-0.182-1.923-0.297-3.146-0.346-3.664c-0.294-3.113-0.234-4.884,0.178-5.317     c0.412-0.431,0.864-0.67,1.353-0.716c2.244-0.212,6.041,3.357,11.388,10.703c1.041,1.428,3.055,4.433,6.04,9.013     c2.985,4.582,4.778,7.41,5.373,8.488l-3.277-26.843c-0.35-3.717-0.162-5.872,0.564-6.464     C418.473,290.423,418.993,290.243,419.647,290.181z"/>
			<path style="fill:#2C2441;" d="M434.609,287.065l1.537,22.168c0.225,2.376,0.392,3.931,0.502,4.661     c-0.11,0.58-0.38,1.108-0.807,1.582c-0.429,0.479-0.929,0.744-1.5,0.797c-0.572,0.055-1.086-0.378-1.544-1.294     c-1.641-10.839-2.812-19.971-3.514-27.409c0.266-1.112,1.152-1.743,2.663-1.886C433.455,285.541,434.344,286.004,434.609,287.065     z M434.301,328.936c-0.685-0.698-1.063-1.439-1.136-2.215c-0.074-0.778,0.145-1.52,0.656-2.22     c0.509-0.702,1.245-1.101,2.204-1.191c0.958-0.09,1.672,0.037,2.137,0.389c0.465,0.348,0.76,1.168,0.882,2.466     c0.216,2.291-0.575,3.521-2.369,3.691C435.774,329.94,434.984,329.633,434.301,328.936z"/>
		</g>
		<g>
			<g>
				<polygon style="fill:#FFE4E8;" points="327.554,91.47 347.762,98.335 328.096,104.658 320.69,125.407 312.742,104.658       293.617,98.335 313.825,91.47 320.69,71.262     "/>
			</g>
			<g>
				<polygon style="fill:#FFE4E8;" points="96.851,441.608 117.06,448.472 97.393,454.795 89.987,475.545 82.04,454.795       62.914,448.472 83.123,441.608 89.987,421.4     "/>
			</g>
			<g>
				<polygon style="fill:#FFE4E8;" points="372.507,421.359 392.715,428.223 373.049,434.546 365.642,455.296 357.695,434.546       338.57,428.223 358.778,421.359 365.642,401.151     "/>
			</g>
			<g>
				<polygon style="fill:#FFE4E8;" points="96.23,165.208 116.438,172.072 96.772,178.395 89.366,199.144 81.419,178.395       62.293,172.072 82.502,165.208 89.366,145     "/>
			</g>
			<g>
				<path style="fill:#FFE4E8;" d="M143.525,109.965c0,3.64-2.951,6.59-6.59,6.59s-6.59-2.951-6.59-6.59      c0-3.64,2.951-6.59,6.59-6.59S143.525,106.325,143.525,109.965z"/>
			</g>
			<g>
				<path style="fill:#FFE4E8;" d="M381.941,157.842c0,3.64-2.951,6.59-6.59,6.59s-6.59-2.951-6.59-6.59c0-3.64,2.95-6.59,6.59-6.59      S381.941,154.202,381.941,157.842z"/>
			</g>
			<g>
				<path style="fill:#FFE4E8;" d="M414.505,368.733c0,3.64-2.951,6.59-6.59,6.59s-6.59-2.951-6.59-6.59      c0-3.64,2.951-6.59,6.59-6.59S414.505,365.093,414.505,368.733z"/>
			</g>
			<g>
				<path style="fill:#FFE4E8;" d="M86.538,280.345c0,3.64-2.951,6.591-6.59,6.591c-3.64,0-6.59-2.951-6.59-6.591      c0-3.639,2.951-6.59,6.59-6.59C83.588,273.754,86.538,276.705,86.538,280.345z"/>
			</g>
			<g>
				<path style="fill:#FFE4E8;" d="M241.218,462.161c0,3.64-2.951,6.591-6.59,6.591c-3.64,0-6.59-2.951-6.59-6.591      c0-3.639,2.951-6.59,6.59-6.59C238.267,455.571,241.218,458.522,241.218,462.161z"/>
			</g>
		</g>
	</g>
</g>















</svg>
